<svg width="28" height="28" viewBox="0 0 28 28" fill="none" xmlns="http://www.w3.org/2000/svg">
<path d="M18.125 14.5C18.125 16.9216 16.1662 18.8846 13.75 18.8846C11.3337 18.8846 9.37498 16.9216 9.37498 14.5C9.37498 12.0785 11.3337 10.1154 13.75 10.1154C16.1662 10.1154 18.125 12.0785 18.125 14.5Z" stroke="white"/>
<path d="M12.4233 5.34314C13.2462 4.8857 14.2537 4.8857 15.0767 5.34314L21.1733 8.79486C21.9887 9.26507 22.4925 10.1207 22.5 11.0483V17.9518C22.4925 18.8794 21.9887 19.7351 21.1733 20.2053L15.0767 23.657C14.2537 24.1144 13.2462 24.1144 12.4233 23.657L6.3267 20.2053C5.51124 19.7351 5.0075 18.8794 4.99998 17.9518L4.99998 11.0483C5.0075 10.1207 5.51125 9.26507 6.3267 8.79486L12.4233 5.34314Z" stroke="white"/>
</svg>
