<svg width="20" height="20" viewBox="0 0 20 20" fill="none" xmlns="http://www.w3.org/2000/svg">
<path d="M10 16.5C9.72386 16.5 9.5 16.7239 9.5 17C9.5 17.2761 9.72386 17.5 10 17.5V16.5ZM2.5 10C2.5 10.2761 2.72386 10.5 3 10.5C3.27614 10.5 3.5 10.2761 3.5 10H2.5ZM10.5 6.23077C10.5 5.95463 10.2761 5.73077 10 5.73077C9.72386 5.73077 9.5 5.95463 9.5 6.23077H10.5ZM10 11.0769L10.3201 11.461C10.4341 11.366 10.5 11.2253 10.5 11.0769H10ZM6.44914 13.3851C6.237 13.5619 6.20834 13.8772 6.38512 14.0893C6.5619 14.3015 6.87718 14.3301 7.08932 14.1533L6.44914 13.3851ZM16.5 10C16.5 13.5899 13.5899 16.5 10 16.5V17.5C14.1421 17.5 17.5 14.1421 17.5 10H16.5ZM3.5 10C3.5 6.41015 6.41015 3.5 10 3.5V2.5C5.85786 2.5 2.5 5.85786 2.5 10H3.5ZM10 3.5C13.5899 3.5 16.5 6.41015 16.5 10H17.5C17.5 5.85786 14.1421 2.5 10 2.5V3.5ZM9.5 6.23077V11.0769H10.5V6.23077H9.5ZM9.67991 10.6928L6.44914 13.3851L7.08932 14.1533L10.3201 11.461L9.67991 10.6928Z" fill="#FFB319"/>
</svg>
