<svg width="32" height="33" viewBox="0 0 32 33" fill="none" xmlns="http://www.w3.org/2000/svg">
<path d="M13.0385 19.5646L13.0385 23.8767C13.0385 24.7555 12.3261 25.4678 11.4474 25.4678C10.6394 25.4678 9.95978 24.8624 9.86682 24.0598L9.34615 19.5646M7.5 17.8937V15.1063C7.5 14.4604 7.87238 13.8723 8.45631 13.596C8.67968 13.4903 8.92372 13.4355 9.17083 13.4355H13.4305C13.5762 13.4355 13.7188 13.3931 13.8408 13.3133L20.4058 9.02243C21.736 8.15298 23.5 9.10739 23.5 10.6966V22.3035C23.5 23.8927 21.736 24.8471 20.4058 23.9776L13.8408 19.6868C13.7188 19.607 13.5762 19.5646 13.4305 19.5646H9.17083C8.92372 19.5646 8.67968 19.5097 8.45631 19.4041C7.87238 19.1278 7.5 18.5397 7.5 17.8937Z" stroke="#999CA0" stroke-width="1.75"/>
</svg>
