<svg width="328" height="200" viewBox="0 0 328 200" fill="none" xmlns="http://www.w3.org/2000/svg">
<rect width="328" height="200" rx="8" fill="white"/>
<path d="M17.474 31.168C16.5313 31.168 15.696 30.9533 14.968 30.524C14.24 30.0947 13.6707 29.4973 13.26 28.732C12.8493 27.9667 12.644 27.0893 12.644 26.1C12.644 25.1013 12.8447 24.224 13.246 23.468C13.6567 22.7027 14.2213 22.1053 14.94 21.676C15.6587 21.2467 16.4893 21.032 17.432 21.032C18.3747 21.032 19.2053 21.2513 19.924 21.69C20.652 22.1193 21.2167 22.7167 21.618 23.482C22.0193 24.238 22.22 25.1107 22.22 26.1C22.22 27.0893 22.0193 27.9667 21.618 28.732C21.2167 29.4973 20.6567 30.0947 19.938 30.524C19.2287 30.9533 18.4073 31.168 17.474 31.168ZM17.474 30.09C18.174 30.09 18.79 29.922 19.322 29.586C19.854 29.2407 20.2693 28.7693 20.568 28.172C20.876 27.5747 21.03 26.884 21.03 26.1C21.03 25.3253 20.876 24.6393 20.568 24.042C20.26 23.4353 19.8353 22.964 19.294 22.628C18.762 22.2827 18.1413 22.11 17.432 22.11C16.732 22.11 16.1113 22.2827 15.57 22.628C15.0287 22.964 14.604 23.4353 14.296 24.042C13.988 24.6393 13.834 25.3253 13.834 26.1C13.834 26.884 13.988 27.5747 14.296 28.172C14.604 28.7693 15.0333 29.2407 15.584 29.586C16.1347 29.922 16.7647 30.09 17.474 30.09ZM25.9911 31L28.8471 24H30.0231L27.0971 31H25.9911ZM25.9211 31L22.9951 24H24.1571L27.0131 31H25.9211ZM34.0245 31.168C33.3432 31.168 32.7412 31.014 32.2185 30.706C31.6958 30.3887 31.2852 29.9547 30.9865 29.404C30.6972 28.8533 30.5525 28.2187 30.5525 27.5C30.5525 26.7813 30.6972 26.1467 30.9865 25.596C31.2852 25.0453 31.6912 24.616 32.2045 24.308C32.7272 23.9907 33.3245 23.832 33.9965 23.832C34.6405 23.832 35.2005 23.9953 35.6765 24.322C36.1618 24.6393 36.5352 25.0873 36.7965 25.666C37.0578 26.2447 37.1885 26.926 37.1885 27.71H36.0685C36.0685 27.1127 35.9892 26.604 35.8305 26.184C35.6718 25.7547 35.4338 25.4233 35.1165 25.19C34.8085 24.9567 34.4305 24.84 33.9825 24.84C33.5252 24.84 33.1192 24.952 32.7645 25.176C32.4192 25.3907 32.1532 25.6987 31.9665 26.1C31.7798 26.5013 31.6865 26.9727 31.6865 27.514C31.6865 28.046 31.7892 28.508 31.9945 28.9C32.1998 29.2827 32.4845 29.586 32.8485 29.81C33.2125 30.0247 33.6232 30.132 34.0805 30.132C34.5658 30.132 34.9765 30.0153 35.3125 29.782C35.6485 29.5487 35.9145 29.2453 36.1105 28.872L37.0905 29.362C36.9132 29.726 36.6752 30.0433 36.3765 30.314C36.0872 30.5847 35.7418 30.7947 35.3405 30.944C34.9485 31.0933 34.5098 31.168 34.0245 31.168ZM31.2945 27.71L31.3085 26.744H36.5025V27.71H31.2945ZM39.2171 27.206C39.2171 26.45 39.3618 25.8387 39.6511 25.372C39.9404 24.896 40.3091 24.546 40.7571 24.322C41.2144 24.0887 41.6951 23.972 42.1991 23.972V25.022C41.7884 25.022 41.3918 25.092 41.0091 25.232C40.6358 25.3627 40.3278 25.582 40.0851 25.89C39.8424 26.198 39.7211 26.618 39.7211 27.15L39.2171 27.206ZM38.6011 31V24H39.7211V31H38.6011ZM45.4736 31L48.3296 24H49.5056L46.5796 31H45.4736ZM45.4036 31L42.4776 24H43.6396L46.4956 31H45.4036ZM50.675 31L50.703 24H51.823L51.795 31H50.675ZM51.249 22.376C51.0623 22.376 50.899 22.306 50.759 22.166C50.619 22.026 50.549 21.8627 50.549 21.676C50.549 21.48 50.619 21.3167 50.759 21.186C50.899 21.046 51.0623 20.976 51.249 20.976C51.445 20.976 51.6083 21.046 51.739 21.186C51.879 21.3167 51.949 21.48 51.949 21.676C51.949 21.8627 51.879 22.026 51.739 22.166C51.6083 22.306 51.445 22.376 51.249 22.376ZM56.9249 31.168C56.2436 31.168 55.6416 31.014 55.1189 30.706C54.5962 30.3887 54.1856 29.9547 53.8869 29.404C53.5976 28.8533 53.4529 28.2187 53.4529 27.5C53.4529 26.7813 53.5976 26.1467 53.8869 25.596C54.1856 25.0453 54.5916 24.616 55.1049 24.308C55.6276 23.9907 56.2249 23.832 56.8969 23.832C57.5409 23.832 58.1009 23.9953 58.5769 24.322C59.0622 24.6393 59.4356 25.0873 59.6969 25.666C59.9582 26.2447 60.0889 26.926 60.0889 27.71H58.9689C58.9689 27.1127 58.8896 26.604 58.7309 26.184C58.5722 25.7547 58.3342 25.4233 58.0169 25.19C57.7089 24.9567 57.3309 24.84 56.8829 24.84C56.4256 24.84 56.0196 24.952 55.6649 25.176C55.3196 25.3907 55.0536 25.6987 54.8669 26.1C54.6802 26.5013 54.5869 26.9727 54.5869 27.514C54.5869 28.046 54.6896 28.508 54.8949 28.9C55.1002 29.2827 55.3849 29.586 55.7489 29.81C56.1129 30.0247 56.5236 30.132 56.9809 30.132C57.4662 30.132 57.8769 30.0153 58.2129 29.782C58.5489 29.5487 58.8149 29.2453 59.0109 28.872L59.9909 29.362C59.8136 29.726 59.5756 30.0433 59.2769 30.314C58.9876 30.5847 58.6422 30.7947 58.2409 30.944C57.8489 31.0933 57.4102 31.168 56.9249 31.168ZM54.1949 27.71L54.2089 26.744H59.4029V27.71H54.1949ZM67.6798 31L70.0458 24H71.1798L68.7998 31H67.6798ZM62.9198 31L65.2858 24H66.3358L63.9978 31H62.9198ZM62.8638 31L60.4838 24H61.6178L63.9558 31H62.8638ZM67.6798 31L65.3418 24H66.4058L68.7438 31H67.6798Z" fill="#999CA0"/>
<rect x="1" y="52" width="327" height="136" rx="4" fill="white"/>
<path d="M54.1599 55.5714V164.5" stroke="#F2F2F2"/>
<path d="M48.5132 180.965C48.2972 180.965 48.0962 180.932 47.9102 180.866C47.7302 180.806 47.5682 180.725 47.4242 180.623C47.2802 180.515 47.1572 180.395 47.0552 180.263C46.9532 180.125 46.8692 179.984 46.8032 179.84L47.3792 179.507C47.5052 179.729 47.6582 179.912 47.8382 180.056C48.0242 180.2 48.2522 180.272 48.5222 180.272C48.7382 180.272 48.9482 180.221 49.1522 180.119C49.3622 180.017 49.5332 179.846 49.6652 179.606C49.7972 179.366 49.8632 179.051 49.8632 178.661V174.557H50.6192V178.958C50.6192 179.288 50.5592 179.579 50.4392 179.831C50.3252 180.083 50.1662 180.293 49.9622 180.461C49.7642 180.629 49.5392 180.755 49.2872 180.839C49.0352 180.923 48.7772 180.965 48.5132 180.965ZM54.774 180.857L54.729 180.119V178.481C54.729 178.127 54.687 177.836 54.603 177.608C54.525 177.374 54.402 177.2 54.234 177.086C54.072 176.966 53.856 176.906 53.586 176.906C53.328 176.906 53.103 176.957 52.911 177.059C52.725 177.161 52.572 177.32 52.452 177.536L51.804 177.275C51.924 177.065 52.068 176.882 52.236 176.726C52.404 176.57 52.599 176.453 52.821 176.375C53.049 176.291 53.307 176.249 53.595 176.249C54.009 176.249 54.354 176.33 54.63 176.492C54.906 176.654 55.113 176.897 55.251 177.221C55.389 177.539 55.455 177.938 55.449 178.418L55.44 180.857H54.774ZM53.424 180.965C52.896 180.965 52.482 180.845 52.182 180.605C51.888 180.359 51.741 180.02 51.741 179.588C51.741 179.132 51.891 178.784 52.191 178.544C52.497 178.298 52.923 178.175 53.469 178.175H54.756V178.778H53.631C53.211 178.778 52.911 178.847 52.731 178.985C52.557 179.123 52.47 179.321 52.47 179.579C52.47 179.813 52.557 179.999 52.731 180.137C52.905 180.269 53.148 180.335 53.46 180.335C53.718 180.335 53.943 180.275 54.135 180.155C54.327 180.035 54.474 179.873 54.576 179.669C54.678 179.459 54.729 179.222 54.729 178.958H55.17C55.17 179.57 55.02 180.059 54.72 180.425C54.42 180.785 53.988 180.965 53.424 180.965ZM56.5899 180.857V176.357H57.2649L57.3099 177.185V180.857H56.5899ZM59.7489 180.857V178.553L60.4689 178.283V180.857H59.7489ZM59.7489 178.553C59.7489 178.109 59.6979 177.77 59.5959 177.536C59.4939 177.302 59.3529 177.143 59.1729 177.059C58.9929 176.969 58.7889 176.924 58.5609 176.924C58.1649 176.924 57.8559 177.065 57.6339 177.347C57.4179 177.623 57.3099 178.016 57.3099 178.526H56.9589C56.9589 178.052 57.0279 177.644 57.1659 177.302C57.3039 176.96 57.5019 176.699 57.7599 176.519C58.0239 176.339 58.3419 176.249 58.7139 176.249C59.2599 176.249 59.6889 176.417 60.0009 176.753C60.3189 177.089 60.4749 177.599 60.4689 178.283L59.7489 178.553Z" fill="#999CA0"/>
<path d="M88.2011 55.5714V164.5" stroke="#F2F2F2"/>
<path d="M81.3389 180.857V174.557H82.1039V180.857H81.3389ZM82.0319 178.094V177.401H84.7319V178.094H82.0319ZM82.0319 175.25V174.557H85.0829V175.25H82.0319ZM87.9369 180.965C87.4989 180.965 87.1119 180.866 86.7759 180.668C86.4399 180.464 86.1759 180.185 85.9839 179.831C85.7979 179.477 85.7049 179.069 85.7049 178.607C85.7049 178.145 85.7979 177.737 85.9839 177.383C86.1759 177.029 86.4369 176.753 86.7669 176.555C87.1029 176.351 87.4869 176.249 87.9189 176.249C88.3329 176.249 88.6929 176.354 88.9989 176.564C89.3109 176.768 89.5509 177.056 89.7189 177.428C89.8869 177.8 89.9709 178.238 89.9709 178.742H89.2509C89.2509 178.358 89.1999 178.031 89.0979 177.761C88.9959 177.485 88.8429 177.272 88.6389 177.122C88.4409 176.972 88.1979 176.897 87.9099 176.897C87.6159 176.897 87.3549 176.969 87.1269 177.113C86.9049 177.251 86.7339 177.449 86.6139 177.707C86.4939 177.965 86.4339 178.268 86.4339 178.616C86.4339 178.958 86.4999 179.255 86.6319 179.507C86.7639 179.753 86.9469 179.948 87.1809 180.092C87.4149 180.23 87.6789 180.299 87.9729 180.299C88.2849 180.299 88.5489 180.224 88.7649 180.074C88.9809 179.924 89.1519 179.729 89.2779 179.489L89.9079 179.804C89.7939 180.038 89.6409 180.242 89.4489 180.416C89.2629 180.59 89.0409 180.725 88.7829 180.821C88.5309 180.917 88.2489 180.965 87.9369 180.965ZM86.1819 178.742L86.1909 178.121H89.5299V178.742H86.1819ZM90.879 180.857V174.557H91.599V180.02L91.563 180.857H90.879ZM93.12 180.965C92.742 180.965 92.409 180.866 92.121 180.668C91.839 180.47 91.62 180.194 91.464 179.84C91.308 179.48 91.23 179.069 91.23 178.607C91.23 178.139 91.308 177.728 91.464 177.374C91.62 177.02 91.839 176.744 92.121 176.546C92.409 176.348 92.742 176.249 93.12 176.249C93.522 176.249 93.876 176.348 94.182 176.546C94.488 176.744 94.725 177.02 94.893 177.374C95.067 177.728 95.154 178.139 95.154 178.607C95.154 179.069 95.067 179.48 94.893 179.84C94.725 180.194 94.488 180.47 94.182 180.668C93.876 180.866 93.522 180.965 93.12 180.965ZM92.958 180.308C93.24 180.308 93.489 180.236 93.705 180.092C93.927 179.948 94.101 179.747 94.227 179.489C94.359 179.231 94.425 178.937 94.425 178.607C94.425 178.277 94.362 177.983 94.236 177.725C94.116 177.467 93.945 177.266 93.723 177.122C93.501 176.978 93.249 176.906 92.967 176.906C92.703 176.906 92.466 176.978 92.256 177.122C92.052 177.266 91.89 177.467 91.77 177.725C91.656 177.983 91.599 178.277 91.599 178.607C91.599 178.937 91.656 179.231 91.77 179.489C91.89 179.747 92.052 179.948 92.256 180.092C92.46 180.236 92.694 180.308 92.958 180.308Z" fill="#999CA0"/>
<path d="M122.118 55.5714V164.5" stroke="#F2F2F2"/>
<path d="M118.352 179.066L115.508 174.863L115.814 174.701L116.174 174.557L118.721 178.328L118.352 179.066ZM115.382 180.857V174.557H116.147V180.857H115.382ZM118.352 179.066L117.983 178.328L120.53 174.557L120.89 174.701L121.187 174.854L118.352 179.066ZM120.557 180.857V174.557H121.313V180.857H120.557ZM125.558 180.857L125.513 180.119V178.481C125.513 178.127 125.471 177.836 125.387 177.608C125.309 177.374 125.186 177.2 125.018 177.086C124.856 176.966 124.64 176.906 124.37 176.906C124.112 176.906 123.887 176.957 123.695 177.059C123.509 177.161 123.356 177.32 123.236 177.536L122.588 177.275C122.708 177.065 122.852 176.882 123.02 176.726C123.188 176.57 123.383 176.453 123.605 176.375C123.833 176.291 124.091 176.249 124.379 176.249C124.793 176.249 125.138 176.33 125.414 176.492C125.69 176.654 125.897 176.897 126.035 177.221C126.173 177.539 126.239 177.938 126.233 178.418L126.224 180.857H125.558ZM124.208 180.965C123.68 180.965 123.266 180.845 122.966 180.605C122.672 180.359 122.525 180.02 122.525 179.588C122.525 179.132 122.675 178.784 122.975 178.544C123.281 178.298 123.707 178.175 124.253 178.175H125.54V178.778H124.415C123.995 178.778 123.695 178.847 123.515 178.985C123.341 179.123 123.254 179.321 123.254 179.579C123.254 179.813 123.341 179.999 123.515 180.137C123.689 180.269 123.932 180.335 124.244 180.335C124.502 180.335 124.727 180.275 124.919 180.155C125.111 180.035 125.258 179.873 125.36 179.669C125.462 179.459 125.513 179.222 125.513 178.958H125.954C125.954 179.57 125.804 180.059 125.504 180.425C125.204 180.785 124.772 180.965 124.208 180.965ZM127.77 178.418C127.77 177.932 127.863 177.539 128.049 177.239C128.235 176.933 128.472 176.708 128.76 176.564C129.054 176.414 129.363 176.339 129.687 176.339V177.014C129.423 177.014 129.168 177.059 128.922 177.149C128.682 177.233 128.484 177.374 128.328 177.572C128.172 177.77 128.094 178.04 128.094 178.382L127.77 178.418ZM127.374 180.857V176.357H128.094V180.857H127.374Z" fill="#999CA0"/>
<path d="M156.524 55.5714V164.5" stroke="#F2F2F2"/>
<path d="M154.295 180.857L151.766 174.557H152.531L155.096 180.857H154.295ZM149.174 180.857L151.739 174.557H152.513L149.984 180.857H149.174ZM150.389 179.066V178.382H153.89V179.066H150.389ZM155.859 182.657V176.357H156.534L156.579 177.185V182.657H155.859ZM158.1 180.965C157.722 180.965 157.389 180.866 157.101 180.668C156.819 180.47 156.6 180.194 156.444 179.84C156.288 179.48 156.21 179.069 156.21 178.607C156.21 178.139 156.288 177.728 156.444 177.374C156.6 177.02 156.819 176.744 157.101 176.546C157.389 176.348 157.722 176.249 158.1 176.249C158.502 176.249 158.856 176.348 159.162 176.546C159.468 176.744 159.705 177.02 159.873 177.374C160.047 177.728 160.134 178.139 160.134 178.607C160.134 179.069 160.047 179.48 159.873 179.84C159.705 180.194 159.468 180.47 159.162 180.668C158.856 180.866 158.502 180.965 158.1 180.965ZM157.938 180.308C158.22 180.308 158.469 180.236 158.685 180.092C158.907 179.948 159.081 179.747 159.207 179.489C159.339 179.231 159.405 178.937 159.405 178.607C159.405 178.277 159.342 177.983 159.216 177.725C159.096 177.467 158.925 177.266 158.703 177.122C158.481 176.978 158.229 176.906 157.947 176.906C157.683 176.906 157.446 176.978 157.236 177.122C157.032 177.266 156.87 177.467 156.75 177.725C156.636 177.983 156.579 178.277 156.579 178.607C156.579 178.937 156.636 179.231 156.75 179.489C156.87 179.747 157.032 179.948 157.236 180.092C157.44 180.236 157.674 180.308 157.938 180.308ZM161.528 178.418C161.528 177.932 161.621 177.539 161.807 177.239C161.993 176.933 162.23 176.708 162.518 176.564C162.812 176.414 163.121 176.339 163.445 176.339V177.014C163.181 177.014 162.926 177.059 162.68 177.149C162.44 177.233 162.242 177.374 162.086 177.572C161.93 177.77 161.852 178.04 161.852 178.382L161.528 178.418ZM161.132 180.857V176.357H161.852V180.857H161.132Z" fill="#999CA0"/>
<path d="M190.376 55.5714V164.5" stroke="#F2F2F2"/>
<path d="M185.845 179.066L183.001 174.863L183.307 174.701L183.667 174.557L186.214 178.328L185.845 179.066ZM182.875 180.857V174.557H183.64V180.857H182.875ZM185.845 179.066L185.476 178.328L188.023 174.557L188.383 174.701L188.68 174.854L185.845 179.066ZM188.05 180.857V174.557H188.806V180.857H188.05ZM193.051 180.857L193.006 180.119V178.481C193.006 178.127 192.964 177.836 192.88 177.608C192.802 177.374 192.679 177.2 192.511 177.086C192.349 176.966 192.133 176.906 191.863 176.906C191.605 176.906 191.38 176.957 191.188 177.059C191.002 177.161 190.849 177.32 190.729 177.536L190.081 177.275C190.201 177.065 190.345 176.882 190.513 176.726C190.681 176.57 190.876 176.453 191.098 176.375C191.326 176.291 191.584 176.249 191.872 176.249C192.286 176.249 192.631 176.33 192.907 176.492C193.183 176.654 193.39 176.897 193.528 177.221C193.666 177.539 193.732 177.938 193.726 178.418L193.717 180.857H193.051ZM191.701 180.965C191.173 180.965 190.759 180.845 190.459 180.605C190.165 180.359 190.018 180.02 190.018 179.588C190.018 179.132 190.168 178.784 190.468 178.544C190.774 178.298 191.2 178.175 191.746 178.175H193.033V178.778H191.908C191.488 178.778 191.188 178.847 191.008 178.985C190.834 179.123 190.747 179.321 190.747 179.579C190.747 179.813 190.834 179.999 191.008 180.137C191.182 180.269 191.425 180.335 191.737 180.335C191.995 180.335 192.22 180.275 192.412 180.155C192.604 180.035 192.751 179.873 192.853 179.669C192.955 179.459 193.006 179.222 193.006 178.958H193.447C193.447 179.57 193.297 180.059 192.997 180.425C192.697 180.785 192.265 180.965 191.701 180.965ZM195.202 182.765C195.088 182.765 194.956 182.741 194.806 182.693C194.656 182.651 194.497 182.594 194.329 182.522L194.599 181.919C194.737 181.979 194.857 182.024 194.959 182.054C195.067 182.084 195.151 182.099 195.211 182.099C195.373 182.099 195.505 182.054 195.607 181.964C195.715 181.88 195.805 181.757 195.877 181.595L196.39 180.371L198.055 176.357H198.829L196.669 181.487C196.555 181.751 196.435 181.979 196.309 182.171C196.189 182.363 196.042 182.51 195.868 182.612C195.694 182.714 195.472 182.765 195.202 182.765ZM196.192 180.857L194.248 176.357H195.013L196.687 180.362L196.903 180.857H196.192Z" fill="#999CA0"/>
<path d="M259.09 55.5714V164.5" stroke="#F2F2F2"/>
<path d="M255.144 180.965C254.928 180.965 254.727 180.932 254.541 180.866C254.361 180.806 254.199 180.725 254.055 180.623C253.911 180.515 253.788 180.395 253.686 180.263C253.584 180.125 253.5 179.984 253.434 179.84L254.01 179.507C254.136 179.729 254.289 179.912 254.469 180.056C254.655 180.2 254.883 180.272 255.153 180.272C255.369 180.272 255.579 180.221 255.783 180.119C255.993 180.017 256.164 179.846 256.296 179.606C256.428 179.366 256.494 179.051 256.494 178.661V174.557H257.25V178.958C257.25 179.288 257.19 179.579 257.07 179.831C256.956 180.083 256.797 180.293 256.593 180.461C256.395 180.629 256.17 180.755 255.918 180.839C255.666 180.923 255.408 180.965 255.144 180.965ZM261.72 180.857L261.675 180.029V176.357H262.395V180.857H261.72ZM258.516 178.931V176.357H259.236V178.661L258.516 178.931ZM259.236 178.661C259.236 179.105 259.287 179.444 259.389 179.678C259.491 179.912 259.632 180.074 259.812 180.164C259.998 180.248 260.205 180.29 260.433 180.29C260.823 180.29 261.126 180.149 261.342 179.867C261.564 179.585 261.675 179.192 261.675 178.688H262.026C262.026 179.162 261.957 179.57 261.819 179.912C261.681 180.254 261.48 180.515 261.216 180.695C260.958 180.875 260.643 180.965 260.271 180.965C259.725 180.965 259.293 180.797 258.975 180.461C258.663 180.125 258.51 179.615 258.516 178.931L259.236 178.661ZM263.652 180.857V174.557H264.372V180.857H263.652Z" fill="#999CA0"/>
<path d="M224.719 55.5714V164.5" stroke="#F2F2F2"/>
<path d="M219.063 180.965C218.847 180.965 218.646 180.932 218.46 180.866C218.28 180.806 218.118 180.725 217.974 180.623C217.83 180.515 217.707 180.395 217.605 180.263C217.503 180.125 217.419 179.984 217.353 179.84L217.929 179.507C218.055 179.729 218.208 179.912 218.388 180.056C218.574 180.2 218.802 180.272 219.072 180.272C219.288 180.272 219.498 180.221 219.702 180.119C219.912 180.017 220.083 179.846 220.215 179.606C220.347 179.366 220.413 179.051 220.413 178.661V174.557H221.169V178.958C221.169 179.288 221.109 179.579 220.989 179.831C220.875 180.083 220.716 180.293 220.512 180.461C220.314 180.629 220.089 180.755 219.837 180.839C219.585 180.923 219.327 180.965 219.063 180.965ZM225.638 180.857L225.593 180.029V176.357H226.313V180.857H225.638ZM222.434 178.931V176.357H223.154V178.661L222.434 178.931ZM223.154 178.661C223.154 179.105 223.205 179.444 223.307 179.678C223.409 179.912 223.55 180.074 223.73 180.164C223.916 180.248 224.123 180.29 224.351 180.29C224.741 180.29 225.044 180.149 225.26 179.867C225.482 179.585 225.593 179.192 225.593 178.688H225.944C225.944 179.162 225.875 179.57 225.737 179.912C225.599 180.254 225.398 180.515 225.134 180.695C224.876 180.875 224.561 180.965 224.189 180.965C223.643 180.965 223.211 180.797 222.893 180.461C222.581 180.125 222.428 179.615 222.434 178.931L223.154 178.661ZM227.57 180.857V176.357H228.245L228.29 177.185V180.857H227.57ZM230.729 180.857V178.553L231.449 178.283V180.857H230.729ZM230.729 178.553C230.729 178.109 230.678 177.77 230.576 177.536C230.474 177.302 230.333 177.143 230.153 177.059C229.973 176.969 229.769 176.924 229.541 176.924C229.145 176.924 228.836 177.065 228.614 177.347C228.398 177.623 228.29 178.016 228.29 178.526H227.939C227.939 178.052 228.008 177.644 228.146 177.302C228.284 176.96 228.482 176.699 228.74 176.519C229.004 176.339 229.322 176.249 229.694 176.249C230.24 176.249 230.669 176.417 230.981 176.753C231.299 177.089 231.455 177.599 231.449 178.283L230.729 178.553Z" fill="#999CA0"/>
<path d="M293.433 55.5714V164.5" stroke="#F2F2F2"/>
<path d="M290.344 180.857L287.815 174.557H288.58L291.145 180.857H290.344ZM285.223 180.857L287.788 174.557H288.562L286.033 180.857H285.223ZM286.438 179.066V178.382H289.939V179.066H286.438ZM294.95 180.857L294.905 180.029V176.357H295.625V180.857H294.95ZM291.746 178.931V176.357H292.466V178.661L291.746 178.931ZM292.466 178.661C292.466 179.105 292.517 179.444 292.619 179.678C292.721 179.912 292.862 180.074 293.042 180.164C293.228 180.248 293.435 180.29 293.663 180.29C294.053 180.29 294.356 180.149 294.572 179.867C294.794 179.585 294.905 179.192 294.905 178.688H295.256C295.256 179.162 295.187 179.57 295.049 179.912C294.911 180.254 294.71 180.515 294.446 180.695C294.188 180.875 293.873 180.965 293.501 180.965C292.955 180.965 292.523 180.797 292.205 180.461C291.893 180.125 291.74 179.615 291.746 178.931L292.466 178.661ZM298.682 182.765C298.394 182.765 298.13 182.735 297.89 182.675C297.656 182.621 297.455 182.558 297.287 182.486C297.125 182.42 297.008 182.363 296.936 182.315L297.206 181.73C297.284 181.772 297.395 181.823 297.539 181.883C297.683 181.949 297.851 182.003 298.043 182.045C298.241 182.093 298.451 182.117 298.673 182.117C298.961 182.117 299.219 182.057 299.447 181.937C299.681 181.823 299.861 181.64 299.987 181.388C300.119 181.142 300.185 180.824 300.185 180.434V176.357H300.905V180.425C300.905 180.941 300.809 181.373 300.617 181.721C300.425 182.069 300.161 182.33 299.825 182.504C299.489 182.678 299.108 182.765 298.682 182.765ZM298.655 180.821C298.253 180.821 297.899 180.725 297.593 180.533C297.287 180.341 297.047 180.074 296.873 179.732C296.705 179.384 296.621 178.988 296.621 178.544C296.621 178.088 296.705 177.689 296.873 177.347C297.047 176.999 297.287 176.729 297.593 176.537C297.899 176.345 298.253 176.249 298.655 176.249C299.033 176.249 299.363 176.345 299.645 176.537C299.927 176.729 300.146 176.999 300.302 177.347C300.464 177.689 300.545 178.088 300.545 178.544C300.545 178.994 300.464 179.39 300.302 179.732C300.146 180.074 299.927 180.341 299.645 180.533C299.363 180.725 299.033 180.821 298.655 180.821ZM298.826 180.2C299.09 180.2 299.324 180.128 299.528 179.984C299.732 179.84 299.891 179.645 300.005 179.399C300.119 179.147 300.176 178.856 300.176 178.526C300.176 178.208 300.116 177.926 299.996 177.68C299.882 177.428 299.723 177.233 299.519 177.095C299.321 176.951 299.087 176.879 298.817 176.879C298.535 176.879 298.283 176.951 298.061 177.095C297.845 177.233 297.674 177.428 297.548 177.68C297.428 177.926 297.368 178.208 297.368 178.526C297.368 178.856 297.431 179.147 297.557 179.399C297.683 179.645 297.854 179.84 298.07 179.984C298.292 180.128 298.544 180.2 298.826 180.2Z" fill="#999CA0"/>
<path d="M36.827 164.5H310.415" stroke="#F2F2F2"/>
<path d="M22.1921 140.089L21.4361 139.9C21.4361 139.702 21.4751 139.507 21.5531 139.315C21.6371 139.117 21.7541 138.922 21.9041 138.73C22.0601 138.538 22.2491 138.358 22.4711 138.19L23.7761 137.209C23.9321 137.101 24.0671 136.978 24.1811 136.84C24.3011 136.696 24.3941 136.549 24.4601 136.399C24.5261 136.243 24.5591 136.093 24.5591 135.949C24.5591 135.739 24.5081 135.55 24.4061 135.382C24.3041 135.208 24.1601 135.07 23.9741 134.968C23.7881 134.866 23.5691 134.815 23.3171 134.815C23.0711 134.815 22.8551 134.863 22.6691 134.959C22.4831 135.049 22.3301 135.172 22.2101 135.328C22.0901 135.478 22.0031 135.64 21.9491 135.814L21.1751 135.661C21.2471 135.391 21.3761 135.139 21.5621 134.905C21.7541 134.671 21.9971 134.482 22.2911 134.338C22.5851 134.194 22.9121 134.122 23.2721 134.122C23.6921 134.122 24.0551 134.203 24.3611 134.365C24.6671 134.521 24.9041 134.737 25.0721 135.013C25.2461 135.283 25.3331 135.592 25.3331 135.94C25.3331 136.27 25.2431 136.582 25.0631 136.876C24.8831 137.17 24.6221 137.455 24.2801 137.731L23.0471 138.667C22.8731 138.793 22.7201 138.931 22.5881 139.081C22.4621 139.231 22.3631 139.39 22.2911 139.558C22.2251 139.72 22.1921 139.897 22.1921 140.089ZM21.4361 140.53V139.9L22.0121 139.855H25.4231V140.53H21.4361ZM28.5605 140.638C28.3085 140.638 28.0505 140.602 27.7865 140.53C27.5285 140.452 27.2825 140.335 27.0485 140.179C26.8205 140.023 26.6315 139.822 26.4815 139.576L27.0935 139.225C27.3035 139.489 27.5315 139.681 27.7775 139.801C28.0235 139.921 28.2785 139.981 28.5425 139.981C28.9565 139.981 29.2925 139.855 29.5505 139.603C29.8145 139.345 29.9465 139.009 29.9465 138.595C29.9465 138.187 29.8205 137.854 29.5685 137.596C29.3165 137.338 28.9865 137.209 28.5785 137.209C28.3565 137.209 28.1375 137.26 27.9215 137.362C27.7055 137.458 27.5375 137.578 27.4175 137.722L26.7335 137.56L27.0395 134.23H30.3965V134.914H27.0845L27.0395 134.257H27.7955L27.4445 137.596L26.8595 137.56C26.9435 137.428 27.0485 137.305 27.1745 137.191C27.3005 137.077 27.4445 136.975 27.6065 136.885C27.7745 136.789 27.9515 136.714 28.1375 136.66C28.3235 136.606 28.5125 136.582 28.7045 136.588C29.0885 136.588 29.4305 136.672 29.7305 136.84C30.0305 137.008 30.2675 137.242 30.4415 137.542C30.6155 137.842 30.7025 138.187 30.7025 138.577C30.7025 138.985 30.6095 139.345 30.4235 139.657C30.2435 139.963 29.9915 140.203 29.6675 140.377C29.3495 140.551 28.9805 140.638 28.5605 140.638Z" fill="#999CA0"/>
<path d="M28.2416 167.87C27.7616 167.87 27.3356 167.732 26.9636 167.456C26.5916 167.174 26.3006 166.79 26.0906 166.304C25.8806 165.812 25.7756 165.248 25.7756 164.612C25.7756 163.976 25.8806 163.415 26.0906 162.929C26.3006 162.437 26.5886 162.053 26.9546 161.777C27.3266 161.495 27.7556 161.354 28.2416 161.354C28.7276 161.354 29.1536 161.495 29.5196 161.777C29.8916 162.053 30.1826 162.437 30.3926 162.929C30.6086 163.415 30.7166 163.976 30.7166 164.612C30.7166 165.248 30.6116 165.812 30.4016 166.304C30.1916 166.79 29.9006 167.174 29.5286 167.456C29.1566 167.732 28.7276 167.87 28.2416 167.87ZM28.2416 167.186C28.5776 167.186 28.8746 167.075 29.1326 166.853C29.3966 166.631 29.6006 166.328 29.7446 165.944C29.8946 165.56 29.9696 165.116 29.9696 164.612C29.9696 164.108 29.8946 163.664 29.7446 163.28C29.6006 162.89 29.3966 162.587 29.1326 162.371C28.8746 162.149 28.5776 162.038 28.2416 162.038C27.9056 162.038 27.6086 162.149 27.3506 162.371C27.0926 162.587 26.8886 162.89 26.7386 163.28C26.5946 163.664 26.5226 164.108 26.5226 164.612C26.5226 165.116 26.5946 165.56 26.7386 165.944C26.8886 166.328 27.0926 166.631 27.3506 166.853C27.6146 167.075 27.9116 167.186 28.2416 167.186Z" fill="#999CA0"/>
<path d="M36.827 137.268H310.415" stroke="#F2F2F2"/>
<path d="M22.7948 113.406C22.5428 113.406 22.2848 113.37 22.0208 113.298C21.7628 113.22 21.5168 113.103 21.2828 112.947C21.0548 112.791 20.8658 112.59 20.7158 112.344L21.3278 111.993C21.5378 112.257 21.7658 112.449 22.0118 112.569C22.2578 112.689 22.5128 112.749 22.7768 112.749C23.1908 112.749 23.5268 112.623 23.7848 112.371C24.0488 112.113 24.1808 111.777 24.1808 111.363C24.1808 110.955 24.0548 110.622 23.8028 110.364C23.5508 110.106 23.2208 109.977 22.8128 109.977C22.5908 109.977 22.3718 110.028 22.1558 110.13C21.9398 110.226 21.7718 110.346 21.6518 110.49L20.9678 110.328L21.2738 106.998H24.6308V107.682H21.3188L21.2738 107.025H22.0298L21.6788 110.364L21.0938 110.328C21.1778 110.196 21.2828 110.073 21.4088 109.959C21.5348 109.845 21.6788 109.743 21.8408 109.653C22.0088 109.557 22.1858 109.482 22.3718 109.428C22.5578 109.374 22.7468 109.35 22.9388 109.356C23.3228 109.356 23.6648 109.44 23.9648 109.608C24.2648 109.776 24.5018 110.01 24.6758 110.31C24.8498 110.61 24.9368 110.955 24.9368 111.345C24.9368 111.753 24.8438 112.113 24.6578 112.425C24.4778 112.731 24.2258 112.971 23.9018 113.145C23.5838 113.319 23.2148 113.406 22.7948 113.406ZM28.2416 113.406C27.7616 113.406 27.3356 113.268 26.9636 112.992C26.5916 112.71 26.3006 112.326 26.0906 111.84C25.8806 111.348 25.7756 110.784 25.7756 110.148C25.7756 109.512 25.8806 108.951 26.0906 108.465C26.3006 107.973 26.5886 107.589 26.9546 107.313C27.3266 107.031 27.7556 106.89 28.2416 106.89C28.7276 106.89 29.1536 107.031 29.5196 107.313C29.8916 107.589 30.1826 107.973 30.3926 108.465C30.6086 108.951 30.7166 109.512 30.7166 110.148C30.7166 110.784 30.6116 111.348 30.4016 111.84C30.1916 112.326 29.9006 112.71 29.5286 112.992C29.1566 113.268 28.7276 113.406 28.2416 113.406ZM28.2416 112.722C28.5776 112.722 28.8746 112.611 29.1326 112.389C29.3966 112.167 29.6006 111.864 29.7446 111.48C29.8946 111.096 29.9696 110.652 29.9696 110.148C29.9696 109.644 29.8946 109.2 29.7446 108.816C29.6006 108.426 29.3966 108.123 29.1326 107.907C28.8746 107.685 28.5776 107.574 28.2416 107.574C27.9056 107.574 27.6086 107.685 27.3506 107.907C27.0926 108.123 26.8886 108.426 26.7386 108.816C26.5946 109.2 26.5226 109.644 26.5226 110.148C26.5226 110.652 26.5946 111.096 26.7386 111.48C26.8886 111.864 27.0926 112.167 27.3506 112.389C27.6146 112.611 27.9116 112.722 28.2416 112.722Z" fill="#999CA0"/>
<path d="M36.827 110.036H310.415" stroke="#F2F2F2"/>
<path d="M21.8545 86.0655L24.9685 80.2335L25.6795 80.3955L22.6915 86.0655H21.8545ZM21.4945 80.4585V79.7655H25.6795V80.3955L25.0945 80.4585H21.4945ZM28.5605 86.1735C28.3085 86.1735 28.0505 86.1375 27.7865 86.0655C27.5285 85.9875 27.2825 85.8705 27.0485 85.7145C26.8205 85.5585 26.6315 85.3575 26.4815 85.1115L27.0935 84.7605C27.3035 85.0245 27.5315 85.2165 27.7775 85.3365C28.0235 85.4565 28.2785 85.5165 28.5425 85.5165C28.9565 85.5165 29.2925 85.3905 29.5505 85.1385C29.8145 84.8805 29.9465 84.5445 29.9465 84.1305C29.9465 83.7225 29.8205 83.3895 29.5685 83.1315C29.3165 82.8735 28.9865 82.7445 28.5785 82.7445C28.3565 82.7445 28.1375 82.7955 27.9215 82.8975C27.7055 82.9935 27.5375 83.1135 27.4175 83.2575L26.7335 83.0955L27.0395 79.7655H30.3965V80.4495H27.0845L27.0395 79.7925H27.7955L27.4445 83.1315L26.8595 83.0955C26.9435 82.9635 27.0485 82.8405 27.1745 82.7265C27.3005 82.6125 27.4445 82.5105 27.6065 82.4205C27.7745 82.3245 27.9515 82.2495 28.1375 82.1955C28.3235 82.1415 28.5125 82.1175 28.7045 82.1235C29.0885 82.1235 29.4305 82.2075 29.7305 82.3755C30.0305 82.5435 30.2675 82.7775 30.4415 83.0775C30.6155 83.3775 30.7025 83.7225 30.7025 84.1125C30.7025 84.5205 30.6095 84.8805 30.4235 85.1925C30.2435 85.4985 29.9915 85.7385 29.6675 85.9125C29.3495 86.0865 28.9805 86.1735 28.5605 86.1735Z" fill="#999CA0"/>
<path d="M36.827 82.8036H310.415" stroke="#F2F2F2"/>
<path d="M17.008 58.8333L17.017 52.9383L17.08 52.5333H17.764L17.746 58.8333H17.008ZM15.604 54.1533V53.4603C15.73 53.4663 15.88 53.4243 16.054 53.3343C16.228 53.2443 16.408 53.1273 16.594 52.9833C16.78 52.8393 16.942 52.6893 17.08 52.5333L17.548 53.0463C17.35 53.2563 17.143 53.4453 16.927 53.6133C16.711 53.7813 16.492 53.9163 16.27 54.0183C16.048 54.1143 15.826 54.1593 15.604 54.1533ZM21.6617 58.9413C21.1817 58.9413 20.7557 58.8033 20.3837 58.5273C20.0117 58.2453 19.7207 57.8613 19.5107 57.3753C19.3007 56.8833 19.1957 56.3193 19.1957 55.6833C19.1957 55.0473 19.3007 54.4863 19.5107 54.0003C19.7207 53.5083 20.0087 53.1243 20.3747 52.8483C20.7467 52.5663 21.1757 52.4253 21.6617 52.4253C22.1477 52.4253 22.5737 52.5663 22.9397 52.8483C23.3117 53.1243 23.6027 53.5083 23.8127 54.0003C24.0287 54.4863 24.1367 55.0473 24.1367 55.6833C24.1367 56.3193 24.0317 56.8833 23.8217 57.3753C23.6117 57.8613 23.3207 58.2453 22.9487 58.5273C22.5767 58.8033 22.1477 58.9413 21.6617 58.9413ZM21.6617 58.2573C21.9977 58.2573 22.2947 58.1463 22.5527 57.9243C22.8167 57.7023 23.0207 57.3993 23.1647 57.0153C23.3147 56.6313 23.3897 56.1873 23.3897 55.6833C23.3897 55.1793 23.3147 54.7353 23.1647 54.3513C23.0207 53.9613 22.8167 53.6583 22.5527 53.4423C22.2947 53.2203 21.9977 53.1093 21.6617 53.1093C21.3257 53.1093 21.0287 53.2203 20.7707 53.4423C20.5127 53.6583 20.3087 53.9613 20.1587 54.3513C20.0147 54.7353 19.9427 55.1793 19.9427 55.6833C19.9427 56.1873 20.0147 56.6313 20.1587 57.0153C20.3087 57.3993 20.5127 57.7023 20.7707 57.9243C21.0347 58.1463 21.3317 58.2573 21.6617 58.2573ZM27.4274 58.9413C26.9474 58.9413 26.5214 58.8033 26.1494 58.5273C25.7774 58.2453 25.4864 57.8613 25.2764 57.3753C25.0664 56.8833 24.9614 56.3193 24.9614 55.6833C24.9614 55.0473 25.0664 54.4863 25.2764 54.0003C25.4864 53.5083 25.7744 53.1243 26.1404 52.8483C26.5124 52.5663 26.9414 52.4253 27.4274 52.4253C27.9134 52.4253 28.3394 52.5663 28.7054 52.8483C29.0774 53.1243 29.3684 53.5083 29.5784 54.0003C29.7944 54.4863 29.9024 55.0473 29.9024 55.6833C29.9024 56.3193 29.7974 56.8833 29.5874 57.3753C29.3774 57.8613 29.0864 58.2453 28.7144 58.5273C28.3424 58.8033 27.9134 58.9413 27.4274 58.9413ZM27.4274 58.2573C27.7634 58.2573 28.0604 58.1463 28.3184 57.9243C28.5824 57.7023 28.7864 57.3993 28.9304 57.0153C29.0804 56.6313 29.1554 56.1873 29.1554 55.6833C29.1554 55.1793 29.0804 54.7353 28.9304 54.3513C28.7864 53.9613 28.5824 53.6583 28.3184 53.4423C28.0604 53.2203 27.7634 53.1093 27.4274 53.1093C27.0914 53.1093 26.7944 53.2203 26.5364 53.4423C26.2784 53.6583 26.0744 53.9613 25.9244 54.3513C25.7804 54.7353 25.7084 55.1793 25.7084 55.6833C25.7084 56.1873 25.7804 56.6313 25.9244 57.0153C26.0744 57.3993 26.2784 57.7023 26.5364 57.9243C26.8004 58.1463 27.0974 58.2573 27.4274 58.2573Z" fill="#999CA0"/>
<path d="M36.827 55.5714H310.415" stroke="#F2F2F2"/>
<path d="M310.754 77.1939L293.86 55.5714L259.498 136.821L226.394 110.036L190.335 55.5714L157.823 82.1339L122.749 73.6518L88.8575 110.036V129.455L54.5718 136.821L37.2319 147.089" stroke="#0E6FFF" stroke-width="2" stroke-linecap="round" stroke-linejoin="round"/>
<path opacity="0.24" d="M293.2 56.1946L310.06 77.7793V164.754H37.078V147.552L54.3837 137.302L88.6018 129.949V110.564L122.427 74.2434L157.431 82.7106L189.879 56.1946L225.867 110.564L258.906 137.302L293.2 56.1946Z" fill="url(#paint0_linear_1_2196)"/>
<rect x="193.5" y="12.5" width="122" height="27" rx="5.5" stroke="#EBEBEB"/>
<rect x="193.5" y="12.5" width="122" height="27" rx="5.5" stroke="black" stroke-opacity="0.08"/>
<path d="M202.692 29.912L201.684 29.66C201.684 29.396 201.736 29.136 201.84 28.88C201.952 28.616 202.108 28.356 202.308 28.1C202.516 27.844 202.768 27.604 203.064 27.38L204.804 26.072C205.012 25.928 205.192 25.764 205.344 25.58C205.504 25.388 205.628 25.192 205.716 24.992C205.804 24.784 205.848 24.584 205.848 24.392C205.848 24.112 205.78 23.86 205.644 23.636C205.508 23.404 205.316 23.22 205.068 23.084C204.82 22.948 204.528 22.88 204.192 22.88C203.864 22.88 203.576 22.944 203.328 23.072C203.08 23.192 202.876 23.356 202.716 23.564C202.556 23.764 202.44 23.98 202.368 24.212L201.336 24.008C201.432 23.648 201.604 23.312 201.852 23C202.108 22.688 202.432 22.436 202.824 22.244C203.216 22.052 203.652 21.956 204.132 21.956C204.692 21.956 205.176 22.064 205.584 22.28C205.992 22.488 206.308 22.776 206.532 23.144C206.764 23.504 206.88 23.916 206.88 24.38C206.88 24.82 206.76 25.236 206.52 25.628C206.28 26.02 205.932 26.4 205.476 26.768L203.832 28.016C203.6 28.184 203.396 28.368 203.22 28.568C203.052 28.768 202.92 28.98 202.824 29.204C202.736 29.42 202.692 29.656 202.692 29.912ZM201.684 30.5V29.66L202.452 29.6H207V30.5H201.684ZM209.395 29.912L208.387 29.66C208.387 29.396 208.439 29.136 208.543 28.88C208.655 28.616 208.811 28.356 209.011 28.1C209.219 27.844 209.471 27.604 209.767 27.38L211.507 26.072C211.715 25.928 211.895 25.764 212.047 25.58C212.207 25.388 212.331 25.192 212.419 24.992C212.507 24.784 212.551 24.584 212.551 24.392C212.551 24.112 212.483 23.86 212.347 23.636C212.211 23.404 212.019 23.22 211.771 23.084C211.523 22.948 211.231 22.88 210.895 22.88C210.567 22.88 210.279 22.944 210.031 23.072C209.783 23.192 209.579 23.356 209.419 23.564C209.259 23.764 209.143 23.98 209.071 24.212L208.039 24.008C208.135 23.648 208.307 23.312 208.555 23C208.811 22.688 209.135 22.436 209.527 22.244C209.919 22.052 210.355 21.956 210.835 21.956C211.395 21.956 211.879 22.064 212.287 22.28C212.695 22.488 213.011 22.776 213.235 23.144C213.467 23.504 213.583 23.916 213.583 24.38C213.583 24.82 213.463 25.236 213.223 25.628C212.983 26.02 212.635 26.4 212.179 26.768L210.535 28.016C210.303 28.184 210.099 28.368 209.923 28.568C209.755 28.768 209.623 28.98 209.527 29.204C209.439 29.42 209.395 29.656 209.395 29.912ZM208.387 30.5V29.66L209.155 29.6H213.703V30.5H208.387ZM224.307 30.5L220.935 22.1H221.955L225.375 30.5H224.307ZM217.479 30.5L220.899 22.1H221.931L218.559 30.5H217.479ZM219.099 28.112V27.2H223.767V28.112H219.099ZM230.448 30.5L230.388 29.396V24.5H231.348V30.5H230.448ZM226.176 27.932V24.5H227.136V27.572L226.176 27.932ZM227.136 27.572C227.136 28.164 227.204 28.616 227.34 28.928C227.476 29.24 227.664 29.456 227.904 29.576C228.152 29.688 228.428 29.744 228.732 29.744C229.252 29.744 229.656 29.556 229.944 29.18C230.24 28.804 230.388 28.28 230.388 27.608H230.856C230.856 28.24 230.764 28.784 230.58 29.24C230.396 29.696 230.128 30.044 229.776 30.284C229.432 30.524 229.012 30.644 228.516 30.644C227.788 30.644 227.212 30.42 226.788 29.972C226.372 29.524 226.168 28.844 226.176 27.932L227.136 27.572ZM235.424 33.044C235.04 33.044 234.688 33.004 234.368 32.924C234.056 32.852 233.788 32.768 233.564 32.672C233.348 32.584 233.192 32.508 233.096 32.444L233.456 31.664C233.56 31.72 233.708 31.788 233.9 31.868C234.092 31.956 234.316 32.028 234.572 32.084C234.836 32.148 235.116 32.18 235.412 32.18C235.796 32.18 236.14 32.1 236.444 31.94C236.756 31.788 236.996 31.544 237.164 31.208C237.34 30.88 237.428 30.456 237.428 29.936V24.5H238.388V29.924C238.388 30.612 238.26 31.188 238.004 31.652C237.748 32.116 237.396 32.464 236.948 32.696C236.5 32.928 235.992 33.044 235.424 33.044ZM235.388 30.452C234.852 30.452 234.38 30.324 233.972 30.068C233.564 29.812 233.244 29.456 233.012 29C232.788 28.536 232.676 28.008 232.676 27.416C232.676 26.808 232.788 26.276 233.012 25.82C233.244 25.356 233.564 24.996 233.972 24.74C234.38 24.484 234.852 24.356 235.388 24.356C235.892 24.356 236.332 24.484 236.708 24.74C237.084 24.996 237.376 25.356 237.584 25.82C237.8 26.276 237.908 26.808 237.908 27.416C237.908 28.016 237.8 28.544 237.584 29C237.376 29.456 237.084 29.812 236.708 30.068C236.332 30.324 235.892 30.452 235.388 30.452ZM235.616 29.624C235.968 29.624 236.28 29.528 236.552 29.336C236.824 29.144 237.036 28.884 237.188 28.556C237.34 28.22 237.416 27.832 237.416 27.392C237.416 26.968 237.336 26.592 237.176 26.264C237.024 25.928 236.812 25.668 236.54 25.484C236.276 25.292 235.964 25.196 235.604 25.196C235.228 25.196 234.892 25.292 234.596 25.484C234.308 25.668 234.08 25.928 233.912 26.264C233.752 26.592 233.672 26.968 233.672 27.392C233.672 27.832 233.756 28.22 233.924 28.556C234.092 28.884 234.32 29.144 234.608 29.336C234.904 29.528 235.24 29.624 235.616 29.624ZM242.887 27.368V26.492H246.487V27.368H242.887ZM251.852 29.912L250.844 29.66C250.844 29.396 250.896 29.136 251 28.88C251.112 28.616 251.268 28.356 251.468 28.1C251.676 27.844 251.928 27.604 252.224 27.38L253.964 26.072C254.172 25.928 254.352 25.764 254.504 25.58C254.664 25.388 254.788 25.192 254.876 24.992C254.964 24.784 255.008 24.584 255.008 24.392C255.008 24.112 254.94 23.86 254.804 23.636C254.668 23.404 254.476 23.22 254.228 23.084C253.98 22.948 253.688 22.88 253.352 22.88C253.024 22.88 252.736 22.944 252.488 23.072C252.24 23.192 252.036 23.356 251.876 23.564C251.716 23.764 251.6 23.98 251.528 24.212L250.496 24.008C250.592 23.648 250.764 23.312 251.012 23C251.268 22.688 251.592 22.436 251.984 22.244C252.376 22.052 252.812 21.956 253.292 21.956C253.852 21.956 254.336 22.064 254.744 22.28C255.152 22.488 255.468 22.776 255.692 23.144C255.924 23.504 256.04 23.916 256.04 24.38C256.04 24.82 255.92 25.236 255.68 25.628C255.44 26.02 255.092 26.4 254.636 26.768L252.992 28.016C252.76 28.184 252.556 28.368 252.38 28.568C252.212 28.768 252.08 28.98 251.984 29.204C251.896 29.42 251.852 29.656 251.852 29.912ZM250.844 30.5V29.66L251.612 29.6H256.16V30.5H250.844ZM260.091 30.644C259.683 30.644 259.311 30.584 258.975 30.464C258.647 30.336 258.363 30.172 258.123 29.972C257.891 29.772 257.707 29.56 257.571 29.336L258.411 28.868C258.499 28.98 258.607 29.108 258.735 29.252C258.871 29.388 259.043 29.504 259.251 29.6C259.459 29.696 259.715 29.744 260.019 29.744C260.563 29.744 260.999 29.588 261.327 29.276C261.655 28.964 261.819 28.572 261.819 28.1C261.819 27.74 261.719 27.436 261.519 27.188C261.327 26.94 261.047 26.752 260.679 26.624C260.311 26.496 259.871 26.432 259.359 26.432H259.131V25.64H259.335C259.839 25.64 260.303 25.696 260.727 25.808C261.151 25.92 261.519 26.084 261.831 26.3C262.151 26.516 262.395 26.78 262.563 27.092C262.739 27.404 262.827 27.764 262.827 28.172C262.827 28.668 262.703 29.104 262.455 29.48C262.215 29.848 261.887 30.136 261.471 30.344C261.055 30.544 260.595 30.644 260.091 30.644ZM259.131 26.348V25.568H259.359C260.047 25.568 260.591 25.452 260.991 25.22C261.399 24.98 261.603 24.64 261.603 24.2C261.603 23.96 261.539 23.74 261.411 23.54C261.283 23.332 261.095 23.168 260.847 23.048C260.607 22.92 260.327 22.856 260.007 22.856C259.791 22.856 259.587 22.888 259.395 22.952C259.211 23.008 259.039 23.096 258.879 23.216C258.727 23.328 258.587 23.472 258.459 23.648L257.667 23.192C257.819 22.944 258.011 22.728 258.243 22.544C258.483 22.36 258.755 22.216 259.059 22.112C259.363 22.008 259.695 21.956 260.055 21.956C260.543 21.956 260.979 22.052 261.363 22.244C261.755 22.436 262.063 22.7 262.287 23.036C262.511 23.364 262.623 23.736 262.623 24.152C262.623 24.504 262.539 24.816 262.371 25.088C262.203 25.36 261.967 25.592 261.663 25.784C261.367 25.976 261.019 26.12 260.619 26.216C260.227 26.304 259.799 26.348 259.335 26.348H259.131ZM270.159 30.644C269.695 30.644 269.283 30.596 268.923 30.5C268.563 30.396 268.251 30.256 267.987 30.08C267.723 29.896 267.507 29.696 267.339 29.48C267.171 29.256 267.047 29.02 266.967 28.772L267.939 28.436C268.059 28.788 268.299 29.096 268.659 29.36C269.027 29.616 269.475 29.744 270.003 29.744C270.651 29.744 271.159 29.616 271.527 29.36C271.895 29.104 272.079 28.764 272.079 28.34C272.079 27.948 271.915 27.632 271.587 27.392C271.259 27.144 270.827 26.952 270.291 26.816L269.367 26.576C268.991 26.48 268.643 26.34 268.323 26.156C268.011 25.964 267.759 25.724 267.567 25.436C267.383 25.14 267.291 24.788 267.291 24.38C267.291 23.62 267.535 23.028 268.023 22.604C268.519 22.172 269.231 21.956 270.159 21.956C270.711 21.956 271.187 22.048 271.587 22.232C271.987 22.408 272.311 22.636 272.559 22.916C272.815 23.188 272.995 23.484 273.099 23.804L272.139 24.14C271.987 23.74 271.731 23.428 271.371 23.204C271.011 22.972 270.575 22.856 270.063 22.856C269.527 22.856 269.099 22.988 268.779 23.252C268.467 23.508 268.311 23.86 268.311 24.308C268.311 24.692 268.435 24.988 268.683 25.196C268.931 25.396 269.255 25.544 269.655 25.64L270.579 25.868C271.395 26.06 272.019 26.38 272.451 26.828C272.891 27.268 273.111 27.744 273.111 28.256C273.111 28.696 272.999 29.1 272.775 29.468C272.551 29.828 272.219 30.116 271.779 30.332C271.347 30.54 270.807 30.644 270.159 30.644ZM277.195 30.644C276.611 30.644 276.095 30.512 275.647 30.248C275.199 29.976 274.847 29.604 274.591 29.132C274.343 28.66 274.219 28.116 274.219 27.5C274.219 26.884 274.343 26.34 274.591 25.868C274.847 25.396 275.195 25.028 275.635 24.764C276.083 24.492 276.595 24.356 277.171 24.356C277.723 24.356 278.203 24.496 278.611 24.776C279.027 25.048 279.347 25.432 279.571 25.928C279.795 26.424 279.907 27.008 279.907 27.68H278.947C278.947 27.168 278.879 26.732 278.743 26.372C278.607 26.004 278.403 25.72 278.131 25.52C277.867 25.32 277.543 25.22 277.159 25.22C276.767 25.22 276.419 25.316 276.115 25.508C275.819 25.692 275.591 25.956 275.431 26.3C275.271 26.644 275.191 27.048 275.191 27.512C275.191 27.968 275.279 28.364 275.455 28.7C275.631 29.028 275.875 29.288 276.187 29.48C276.499 29.664 276.851 29.756 277.243 29.756C277.659 29.756 278.011 29.656 278.299 29.456C278.587 29.256 278.815 28.996 278.983 28.676L279.823 29.096C279.671 29.408 279.467 29.68 279.211 29.912C278.963 30.144 278.667 30.324 278.323 30.452C277.987 30.58 277.611 30.644 277.195 30.644ZM274.855 27.68L274.867 26.852H279.319V27.68H274.855ZM281.177 32.9V24.5H282.077L282.137 25.604V32.9H281.177ZM284.165 30.644C283.661 30.644 283.217 30.512 282.833 30.248C282.457 29.984 282.165 29.616 281.957 29.144C281.749 28.664 281.645 28.116 281.645 27.5C281.645 26.876 281.749 26.328 281.957 25.856C282.165 25.384 282.457 25.016 282.833 24.752C283.217 24.488 283.661 24.356 284.165 24.356C284.701 24.356 285.173 24.488 285.581 24.752C285.989 25.016 286.305 25.384 286.529 25.856C286.761 26.328 286.877 26.876 286.877 27.5C286.877 28.116 286.761 28.664 286.529 29.144C286.305 29.616 285.989 29.984 285.581 30.248C285.173 30.512 284.701 30.644 284.165 30.644ZM283.949 29.768C284.325 29.768 284.657 29.672 284.945 29.48C285.241 29.288 285.473 29.02 285.641 28.676C285.817 28.332 285.905 27.94 285.905 27.5C285.905 27.06 285.821 26.668 285.653 26.324C285.493 25.98 285.265 25.712 284.969 25.52C284.673 25.328 284.337 25.232 283.961 25.232C283.609 25.232 283.293 25.328 283.013 25.52C282.741 25.712 282.525 25.98 282.365 26.324C282.213 26.668 282.137 27.06 282.137 27.5C282.137 27.94 282.213 28.332 282.365 28.676C282.525 29.02 282.741 29.288 283.013 29.48C283.285 29.672 283.597 29.768 283.949 29.768ZM290.463 30.644C289.879 30.644 289.427 30.492 289.107 30.188C288.787 29.884 288.627 29.456 288.627 28.904V22.628H289.587V28.808C289.587 29.112 289.667 29.348 289.827 29.516C289.995 29.676 290.227 29.756 290.523 29.756C290.619 29.756 290.711 29.744 290.799 29.72C290.895 29.688 291.019 29.616 291.171 29.504L291.543 30.284C291.335 30.42 291.147 30.512 290.979 30.56C290.811 30.616 290.639 30.644 290.463 30.644ZM287.583 25.352V24.5H291.387V25.352H287.583Z" fill="black"/>
<path d="M304 23.0769V26.3654L306.192 28.1923M308.75 26C308.75 28.6234 306.623 30.75 304 30.75C301.377 30.75 299.25 28.6234 299.25 26C299.25 23.3766 301.377 21.25 304 21.25C306.623 21.25 308.75 23.3766 308.75 26Z" stroke="#999CA0" stroke-linecap="round" stroke-linejoin="round"/>
<defs>
<linearGradient id="paint0_linear_1_2196" x1="173.569" y1="56.1946" x2="173.569" y2="164.754" gradientUnits="userSpaceOnUse">
<stop stop-color="#0E6FFF"/>
<stop offset="1" stop-color="#0E6FFF" stop-opacity="0"/>
</linearGradient>
</defs>
</svg>
